<?xml version="1.0" encoding="utf-8"?>
<!-- Generator: Adobe Illustrator 16.0.3, SVG Export Plug-In . SVG Version: 6.00 Build 0)  -->
<!DOCTYPE svg PUBLIC "-//W3C//DTD SVG 1.1//EN" "http://www.w3.org/Graphics/SVG/1.1/DTD/svg11.dtd">
<svg version="1.1" id="Layer_1" xmlns="http://www.w3.org/2000/svg" xmlns:xlink="http://www.w3.org/1999/xlink" x="0px" y="0px"
	 width="512px" height="512px" viewBox="0 0 512 512" enable-background="new 0 0 512 512" xml:space="preserve">
<g id="Center_guide_1_">
</g>
<g id="Baseline">
</g>
<g id="Baseline_guide">
</g>
<g id="Font_Height" display="none">
	<path display="inline" d="M433,231c0,97.754-79.246,177-177,177S79,328.754,79,231S158.746,56,256.5,56S433,133.246,433,231z
		 M373,232L177,103v251L373,232z"/>
</g>
<g id="Center_to_Font">
	<g>
		<path d="M257.078,511.725c-29.414,0-56.92-6.722-82.566-20.13c-25.623-13.411-48.05-31.737-67.284-54.912
			c-19.234-23.211-34.401-50.28-45.524-81.207c-11.122-30.928-16.683-64.132-16.683-99.612c0-35.482,5.561-68.686,16.683-99.613
			c11.123-30.93,26.29-57.997,45.524-81.207c19.234-23.183,41.662-41.506,67.284-54.916C200.158,6.718,227.664,0,257.078,0
			C286.494,0,314,6.718,339.646,20.128c25.645,13.41,48.069,31.733,67.28,54.916c19.234,23.208,34.429,50.277,45.523,81.207
			c11.124,30.928,16.707,64.13,16.707,99.613c0,35.48-5.583,68.687-16.707,99.614c-11.103,30.925-26.289,57.994-45.523,81.205
			c-19.211,23.181-41.64,41.506-67.28,54.913C314,505.005,286.494,511.725,257.078,511.725z M256.803,77.098
			c-20.336,0-39.526,4.664-57.611,13.993c-18.062,9.328-33.779,22.072-47.153,38.202c-13.375,16.158-23.899,35.147-31.621,56.967
			c-7.721,21.851-11.583,45.033-11.583,69.604s3.861,47.752,11.583,69.603c7.721,21.818,18.245,40.809,31.621,56.965
			c13.373,16.157,29.092,28.869,47.153,38.201c18.085,9.331,37.275,13.993,57.611,13.993c20.338,0,39.525-4.661,57.611-13.993
			c18.062-9.331,33.873-22.043,47.43-38.201c13.562-16.156,24.198-35.149,31.918-56.965c7.7-21.851,11.562-45.032,11.562-69.603
			c0-24.57-3.859-47.754-11.562-69.604c-7.72-21.821-18.355-40.809-31.918-56.967c-13.556-16.13-29.368-28.873-47.43-38.202
			C296.328,81.761,277.141,77.098,256.803,77.098z M174.903,244.95c-7.514,0-12.041-2.276-13.535-6.83
			c-1.517-4.553,0.368-9.995,5.631-16.381l76.821-92.783c3.746-4.109,8.088-6.135,12.982-6.135c4.527,0,8.849,2.026,12.982,6.135
			l76.822,92.783c5.261,6.386,7.146,11.828,5.631,16.381c-1.494,4.554-6.021,6.83-13.535,6.83h-44.628v126.209
			c0,3.666-1.033,6.719-3.1,9.219c-2.07,2.496-4.621,3.745-7.634,3.745h-53.085c-3.009,0-5.56-1.246-7.63-3.745
			c-2.066-2.5-3.102-5.553-3.102-9.219V244.95H174.903z"/>
	</g>
</g>
</svg>
