<?xml version="1.0" encoding="utf-8"?>
<!-- Generator: Adobe Illustrator 16.0.3, SVG Export Plug-In . SVG Version: 6.00 Build 0)  -->
<!DOCTYPE svg PUBLIC "-//W3C//DTD SVG 1.1//EN" "http://www.w3.org/Graphics/SVG/1.1/DTD/svg11.dtd">
<svg version="1.1" id="Layer_1" xmlns="http://www.w3.org/2000/svg" xmlns:xlink="http://www.w3.org/1999/xlink" x="0px" y="0px"
	 width="512px" height="512px" viewBox="0 0 512 512" enable-background="new 0 0 512 512" xml:space="preserve">
<g id="Center_guide_1_">
</g>
<g id="Baseline">
</g>
<g id="Baseline_guide">
</g>
<g id="Font_Height" display="none">
	<path display="inline" d="M433,231c0,97.754-79.246,177-177,177S79,328.754,79,231S158.746,56,256.5,56S433,133.246,433,231z
		 M373,232L177,103v251L373,232z"/>
</g>
<g>
	<path d="M481.852,30.78c4.517,4.523,6.781,10.089,6.781,16.69v328.584c0,6.609-2.266,12.176-6.781,16.689
		c-4.521,4.521-10.088,6.779-16.688,6.779H42.696c-6.609,0-12.175-2.258-16.69-6.779c-4.523-4.516-6.78-10.08-6.78-16.689V47.47
		c0-6.601,2.257-12.167,6.78-16.69C30.521,26.265,36.087,24,42.696,24h422.466C471.764,24,477.33,26.265,481.852,30.78z
		 M451.08,61.552H56.779v300.42H451.08V61.552z"/>
</g>
<rect x="44.101" y="142.996" width="422.979" height="26.999"/>
<rect x="44.101" y="251.991" width="422.979" height="26.999"/>
<rect x="173.095" y="48.5" width="26.999" height="326.982"/>
<rect x="306.588" y="48.5" width="26.998" height="326.982"/>
</svg>
